# xmcd CD database file
#
# Track frame offsets:
#	150
#	17808
#	28439
#	43062
#	59307
#	79963
#	96006
#	112273
#	133292
#	147377
#	160397
#	176815
#	192521
#	221018
#	235090
#
# Disc length: 3409 seconds
#
# Revision: 1
# Processed by: cddbd v1.5.1PL0 Copyright (c) Steve Scherf et al.
# Submitted via: jetAudio 5
#
DISCID=ea0d4f0f
DTITLE=Edu Weber - Fences
DYEAR=1900
DGENRE=
TTITLE0=Mr. Nice Guy
TTITLE1=Me
TTITLE2=Tucumcari
TTITLE3=Fences
TTITLE4=The Grizzly
TTITLE5=Not Responsible
TTITLE6=Snake River Tombstone
TTITLE7=Doggone Homesick Blues
TTITLE8=Ellie's Frontier Saloon
TTITLE9=Try Next Door
TTITLE10=Catch This Flight
TTITLE11=No One Special
TTITLE12=Six String Red Electric
TTITLE13=Old Friend
TTITLE14=That Song
EXTD=
EXTT0=
EXTT1=
EXTT2=
EXTT3=
EXTT4=
EXTT5=
EXTT6=
EXTT7=
EXTT8=
EXTT9=
EXTT10=
EXTT11=
EXTT12=
EXTT13=
EXTT14=
PLAYORDER=
